<?xml version="1.0" standalone="no"?>
<svg xmlns="http://www.w3.org/2000/svg" viewBox="0 0 144.416 36" width="144.416" height="36"><g fill="#ff0000" color="#ff0000" transform="translate(0 6) scale(0.48)"><svg width="24.0" height="50.0" x="0.0" y="0.0" viewBox="0 0 24 50"><path fill="currentColor" fill-rule="nonzero" d="M6.12 23.8l6.06-6.22 6.06 6.23 5.36-5.5-6.06-6.23 6.06-6.22-5.36-5.5-6.06 6.23L6.12.36.77 5.86l6.06 6.22-6.06 6.23 5.35 5.49zm0-21.5l6.06 6.23 6.06-6.23 3.46 3.56-6.06 6.22 6.06 6.23-3.46 3.56-6.06-6.23-6.06 6.22-3.46-3.56 6.06-6.23-6.06-6.22L6.12 2.3zM23.6 31.61l-6.06 6.21 6.06 6.23-5.36 5.5-6.06-6.23-6.06 6.23-5.35-5.5 6.06-6.22-6.06-6.22 5.35-5.5 6.06 6.23 6.06-6.23 5.36 5.5zM8.73 37.84l-6.06 6.22 3.46 3.56 6.06-6.22 6.06 6.22 3.46-3.56-6.06-6.22 6.06-6.22-3.46-3.56-6.06 6.23-6.06-6.23-3.46 3.56 6.06 6.22z"></path></svg></g><path fill="#000000" fill-rule="nonzero" d="M13.68 11.66Q13.68 14.76 11.92 16.22Q10.15 17.69 6.84 17.69L6.84 17.69Q3.53 17.69 1.76 16.22Q0 14.76 0 11.66L0 11.66L0 11.45L4.97 11.45L4.97 11.64Q4.97 12.77 5.39 13.25Q5.81 13.73 6.67 13.73L6.67 13.73Q7.54 13.73 7.96 13.25Q8.38 12.77 8.38 11.64L8.38 11.64L8.38 0.89L13.68 0.89L13.68 11.66ZM33.29 17.40L27.67 17.40L26.98 15.07L21.19 15.07L20.50 17.40L15.07 17.40L21.10 0.89L27.26 0.89L33.29 17.40ZM24.05 5.50L22.30 11.38L25.87 11.38L24.14 5.50L24.05 5.50ZM42.43 0.89Q51.10 0.89 51.10 9.14L51.10 9.14Q51.10 17.40 42.43 17.40L42.43 17.40L35.28 17.40L35.28 0.89L42.43 0.89ZM40.58 4.85L40.58 13.44L42.34 13.44Q45.67 13.44 45.67 9.86L45.67 9.86L45.67 8.42Q45.67 4.85 42.34 4.85L42.34 4.85L40.58 4.85ZM53.95 17.40L53.95 0.89L68.23 0.89L68.23 4.85L59.26 4.85L59.26 7.13L66.94 7.13L66.94 10.92L59.26 10.92L59.26 13.44L68.40 13.44L68.40 17.40L53.95 17.40ZM79.27 17.40L79.27 0.89L84.58 0.89L84.58 13.18L93.05 13.18L93.05 17.40L79.27 17.40ZM101.21 4.44Q104.11 4.44 105.94 5.41Q107.76 6.38 107.76 8.57L107.76 8.57L107.76 13.51Q107.76 13.92 107.95 14.18Q108.14 14.45 108.53 14.45L108.53 14.45L109.39 14.45L109.39 17.21Q109.32 17.26 109.02 17.36Q108.72 17.47 108.17 17.58Q107.62 17.69 106.90 17.69L106.90 17.69Q105.50 17.69 104.60 17.27Q103.70 16.85 103.37 16.10L103.37 16.10Q102.46 16.82 101.33 17.26Q100.20 17.69 98.69 17.69L98.69 17.69Q94.22 17.69 94.22 14.14L94.22 14.14Q94.22 12.29 95.22 11.32Q96.22 10.34 98.09 9.98Q99.96 9.62 102.98 9.62L102.98 9.62L102.98 9.00Q102.98 8.26 102.47 7.87Q101.95 7.49 101.14 7.49L101.14 7.49Q100.39 7.49 99.85 7.75Q99.31 8.02 99.31 8.59L99.31 8.59L99.31 8.69L94.61 8.69Q94.58 8.57 94.58 8.35L94.58 8.35Q94.58 6.55 96.30 5.50Q98.02 4.44 101.21 4.44L101.21 4.44ZM102.98 11.88Q100.94 11.88 99.97 12.32Q99 12.77 99 13.51L99 13.51Q99 14.71 100.63 14.71L100.63 14.71Q101.57 14.71 102.28 14.21Q102.98 13.70 102.98 12.96L102.98 12.96L102.98 11.88ZM115.99 5.90Q117.36 4.44 119.54 4.44L119.54 4.44Q122.11 4.44 123.50 6.11Q124.90 7.78 124.90 11.04L124.90 11.04Q124.90 14.33 123.50 16.01Q122.11 17.69 119.54 17.69L119.54 17.69Q116.90 17.69 115.51 15.60L115.51 15.60L115.10 17.40L111.22 17.40L111.22 0L115.99 0L115.99 5.90ZM118.06 7.97Q117 7.97 116.47 8.72Q115.94 9.48 115.94 10.68L115.94 10.68L115.94 11.47Q115.94 12.67 116.47 13.42Q117 14.16 118.06 14.16L118.06 14.16Q120.12 14.16 120.12 11.71L120.12 11.71L120.12 10.44Q120.12 7.97 118.06 7.97L118.06 7.97Z" transform="translate(19.52, 9.156)"></path></svg>