<?xml version="1.0" standalone="no"?>
<svg xmlns="http://www.w3.org/2000/svg" viewBox="0 0 160.897 36" width="160.897" height="36"><g fill="#ff9a02" color="#ff9a02" transform="translate(0 3.9999999999999982) scale(0.2800001)"><svg width="100.0" height="100.0" x="0.0" y="0.0" viewBox="0 0 100 100"><g><path fill="none" d="M79.524,31.179c1.893,0.308,2.936,0.294,3.949-0.477c0.85-0.646,1.041-1.625,1.08-2.308   c-0.164-0.871-0.822-2.238-1.785-3.226c-0.961-0.989-2.152-1.173-2.891-1.219c-0.957-0.061-1.945,0.646-1.945,0.646   c-0.861,0.79-2.178,1.844-1.947,3.613C76.185,29.733,77.815,30.902,79.524,31.179z M78.364,26.751   c0.049-0.713,1.57-1.627,2.713-1.494c1.408,0.164,2.385,1.705,2.373,2.103c-0.01,0.386-0.881,1.3-2.428,1.259   C79.579,28.581,78.278,28.026,78.364,26.751z"></path><path fill="none" d="M90.485,28.273c0.297,0.025,0.662-0.08,0.596-0.3c-0.129-0.413-1.066-0.439-1.168-0.146   C89.833,28.062,90.122,28.24,90.485,28.273z"></path><path fill="currentColor" d="M81.022,28.62c1.547,0.041,2.418-0.873,2.428-1.259c0.012-0.398-0.965-1.939-2.373-2.103   c-1.143-0.133-2.664,0.781-2.713,1.494C78.278,28.026,79.579,28.581,81.022,28.62z"></path><path fill="currentColor" d="M94.507,28.918c-1.063-0.738-2.295-1.286-3.93-1.592c-1.299-0.242-5.455,0.383-6.023-0.392   c-0.625-0.85-0.969-1.876-1.932-2.495c-1.629-1.048-4.459-1.214-6.066-0.493c-2.445,1.096-2.969,3.865-3.646,4.403   c-0.531,0.422-10.639,2.939-11.908,3.513c-1.035,0.468-2.729,1.715-5.748,2.433c-1.547,0.369-12.261,0.719-18.704,3.089   c-1.686,0.621-19.111,11.855-19.973,12.429c-1.174,0.24-5.604,1.365-6.395,1.705s-1.628,1.48-1.82,2.223   c-1.341,0.744-3.209,2.826-3.568,4.838c-0.339,1.9,0.359,3.641,2.012,5.174c0.98,0.908,4.311,3.664,5.173,4.381   c0.863,0.719,2.026,1.459,3.064,1.979c1.016,0.506,1.64,1.537,2.861,1.969c1.222,0.43,17.101,0.82,18.259,0.799   c1.186-0.021,6.758-0.461,7.613-0.568c0.882-0.111,3.046-0.26,3.461-0.031c0.615,0.338,0.736,1.529,1.024,1.674   s0.704-0.076,0.807-0.305c0.193-0.434-0.17-1.586-0.338-1.846c0.377-0.158,2.262-0.076,2.909-0.221   c0.121,0.344,0.321,0.912,0.929,0.869c0.545-0.039,0.618-0.402,0.546-0.834c5.383-0.814,7.967-0.49,9.59-0.107   c1.047,0.25,1.963,1.123,2.516,1.801c0.303,0.369,1.047,0.107,0.848-0.787c-0.141-0.635-2.215-2.674-3.51-3.031   c-0.607-0.168-4.299-0.324-5.67-0.451c-0.184-0.016-2.588,0.266-5.429,0.344c-0.586,0.018-1.147-0.578-1.751-0.57   c-3.749,0.063-6.8,1.02-7.492,0.57c-0.003-0.002,2.69-2.412,2.85-5.535c0.114-2.23-1.317-4.617-2.321-6.393   c-2.747-4.865-10.876-6.42-10.626-6.475c0.108-0.023,8.338,1.098,11.305,5.836c0.954,1.523,2.8,4.451,2.737,6.934   c-0.056,2.184-2.01,4.777-1.588,4.771c1.485-0.027,2.902-0.561,5.169-0.668c0.602-0.029,1.087,0.719,1.669,0.689   c2.868-0.141,5.083-0.334,5.864-0.566c2.625-0.783,5.623-1.561,7.885-3.822c1.23,1.416,4.168,3.488,4.445,3.893   c1.424,2.078,9.672,3.51,12.045,3.262c0.307-0.031,0.525-0.297,0.719-0.35c1.408-0.383,4.479-0.512,5.912-0.385   c0.359,0.031,0.561-0.189,0.705-0.404c0.143-0.217,1.25-0.344,1.721-0.17c0.203,0.074,0.408,0.902,0.84,1.119   c0.432,0.215,0.916-0.195,0.916-0.625c0-0.434-0.893-1.709-1.738-2.004c-0.365-0.125-0.695,0.004-1.031-0.182   c-0.416-0.23-1.199-1.092-1.627-1.111c-0.367-0.016-1.633,0.543-2.125,0.635c-0.604,0.113-1.801,0.104-2.447,0.031   c-0.645-0.072-3.043-1.303-3.336-1.846c-0.145-0.266,0.059-0.346-0.066-0.615c-0.342-0.729-5.287-5.877-7.826-7.83   c1.186-0.754,2.799-2.301,3.443-2.875c2.033-1.816,4.201-5.375,4.848-6.309c0.648-0.934,1.723-2.077,2.646-3.277   c1.139-1.784,3.799-4.306,5.078-5.287c0.727-0.557,3.227-1.465,4.168-2.155c0.969-0.713,1.32-1.986,1.398-2.402   c0.783-0.292,2.076-1.506,2.154-3.614C96.032,30.72,95.343,29.501,94.507,28.918z M89.913,27.827   c0.102-0.293,1.039-0.267,1.168,0.146c0.066,0.22-0.299,0.325-0.596,0.3C90.122,28.24,89.833,28.062,89.913,27.827z M77.933,24.596   c0,0,0.988-0.707,1.945-0.646c0.738,0.046,1.93,0.23,2.891,1.219c0.963,0.988,1.621,2.355,1.785,3.226   c-0.039,0.683-0.23,1.662-1.08,2.308c-1.014,0.771-2.057,0.785-3.949,0.477c-1.709-0.277-3.34-1.446-3.539-2.97   C75.755,26.44,77.071,25.386,77.933,24.596z M91.419,37.542c-0.824,0.544-2.727,1.156-3.266,1.518   c-1.547,1.036-2.859,2.574-4.117,3.938c-1.258,1.366-6.063,8.025-7.113,9.402c-1.049,1.379-3.791,3.932-4.932,4.816l-1.084-0.965   c2.777-1.559,4.287-7.504-1.33-9.426c-1.57-0.537-1.344-0.756,0.945-1.784c2.229-1.001,2.938-3.569,3.883-4.093   c0.943-0.525,16.234-5.654,18.576-5.563C92.981,36.47,92.351,36.927,91.419,37.542z"></path></g></svg></g><path fill="#000000" fill-rule="nonzero" d="M13.68 11.66Q13.68 14.76 11.92 16.22Q10.15 17.69 6.84 17.69L6.84 17.69Q3.53 17.69 1.76 16.22Q0 14.76 0 11.66L0 11.66L0 11.45L4.97 11.45L4.97 11.64Q4.97 12.77 5.39 13.25Q5.81 13.73 6.67 13.73L6.67 13.73Q7.54 13.73 7.96 13.25Q8.38 12.77 8.38 11.64L8.38 11.64L8.38 0.89L13.68 0.89L13.68 11.66ZM33.29 17.40L27.67 17.40L26.98 15.07L21.19 15.07L20.50 17.40L15.07 17.40L21.10 0.89L27.26 0.89L33.29 17.40ZM24.05 5.50L22.30 11.38L25.87 11.38L24.14 5.50L24.05 5.50ZM42.43 0.89Q51.10 0.89 51.10 9.14L51.10 9.14Q51.10 17.40 42.43 17.40L42.43 17.40L35.28 17.40L35.28 0.89L42.43 0.89ZM40.58 4.85L40.58 13.44L42.34 13.44Q45.67 13.44 45.67 9.86L45.67 9.86L45.67 8.42Q45.67 4.85 42.34 4.85L42.34 4.85L40.58 4.85ZM53.95 17.40L53.95 0.89L68.23 0.89L68.23 4.85L59.26 4.85L59.26 7.13L66.94 7.13L66.94 10.92L59.26 10.92L59.26 13.44L68.40 13.44L68.40 17.40L53.95 17.40ZM79.27 17.40L79.27 0.89L84.58 0.89L84.58 13.18L93.05 13.18L93.05 17.40L79.27 17.40ZM101.21 4.44Q104.11 4.44 105.94 5.41Q107.76 6.38 107.76 8.57L107.76 8.57L107.76 13.51Q107.76 13.92 107.95 14.18Q108.14 14.45 108.53 14.45L108.53 14.45L109.39 14.45L109.39 17.21Q109.32 17.26 109.02 17.36Q108.72 17.47 108.17 17.58Q107.62 17.69 106.90 17.69L106.90 17.69Q105.50 17.69 104.60 17.27Q103.70 16.85 103.37 16.10L103.37 16.10Q102.46 16.82 101.33 17.26Q100.20 17.69 98.69 17.69L98.69 17.69Q94.22 17.69 94.22 14.14L94.22 14.14Q94.22 12.29 95.22 11.32Q96.22 10.34 98.09 9.98Q99.96 9.62 102.98 9.62L102.98 9.62L102.98 9.00Q102.98 8.26 102.47 7.87Q101.95 7.49 101.14 7.49L101.14 7.49Q100.39 7.49 99.85 7.75Q99.31 8.02 99.31 8.59L99.31 8.59L99.31 8.69L94.61 8.69Q94.58 8.57 94.58 8.35L94.58 8.35Q94.58 6.55 96.30 5.50Q98.02 4.44 101.21 4.44L101.21 4.44ZM102.98 11.88Q100.94 11.88 99.97 12.32Q99 12.77 99 13.51L99 13.51Q99 14.71 100.63 14.71L100.63 14.71Q101.57 14.71 102.28 14.21Q102.98 13.70 102.98 12.96L102.98 12.96L102.98 11.88ZM115.99 5.90Q117.36 4.44 119.54 4.44L119.54 4.44Q122.11 4.44 123.50 6.11Q124.90 7.78 124.90 11.04L124.90 11.04Q124.90 14.33 123.50 16.01Q122.11 17.69 119.54 17.69L119.54 17.69Q116.90 17.69 115.51 15.60L115.51 15.60L115.10 17.40L111.22 17.40L111.22 0L115.99 0L115.99 5.90ZM118.06 7.97Q117 7.97 116.47 8.72Q115.94 9.48 115.94 10.68L115.94 10.68L115.94 11.47Q115.94 12.67 116.47 13.42Q117 14.16 118.06 14.16L118.06 14.16Q120.12 14.16 120.12 11.71L120.12 11.71L120.12 10.44Q120.12 7.97 118.06 7.97L118.06 7.97Z" transform="translate(36, 9.156)"></path></svg>